<svg width="322" height="256" viewBox="0 0 322 256" fill="none" xmlns="http://www.w3.org/2000/svg">
<path d="M60.3025 126.85C60.5617 128.734 61.1343 131.187 61.15 132.998L24.3573 137.402C23.8826 135.658 23.4972 133.837 23.2362 131.958C21.0816 116.308 28.1515 105.106 38.3885 103.698C48.6238 102.285 58.1459 111.204 60.3025 126.85Z" fill="#FAB76E"/>
<path d="M62.7267 129.259C62.7267 129.259 71.3837 183.452 77.3479 190.856C84.0588 199.193 110.727 191.367 142.123 176.65L149.031 226.893C126.527 231.749 60.9522 238.588 51.896 229.256C30.236 206.933 22.1834 135.622 22.1834 135.622L62.7267 129.259Z" fill="#100F0D"/>
<path d="M247.78 13.826C242.828 11.6735 228.286 8.85729 221.636 8.80348C214.985 8.85729 200.446 11.6735 195.49 13.826C172.455 23.844 172.177 43.2973 172.177 73.5981H221.636H271.096C271.096 43.2973 270.815 23.844 247.78 13.826Z" fill="#717374"/>
<path d="M241.331 134.316H202.987C202.987 134.316 208.844 167.63 180.951 195.169L220.317 242.726H224.001L263.365 195.169C235.475 167.63 241.331 134.316 241.331 134.316Z" fill="#FAB76E"/>
<path d="M241.331 134.316H202.988C202.988 134.316 205.825 150.55 198.065 169.711C214.083 163.465 226.846 150.285 240.937 138.182C241.087 135.729 241.331 134.316 241.331 134.316Z" fill="#E7A24D"/>
<path d="M201.043 153.312C200.01 157.129 196.979 154.779 195.042 160.259C191.659 169.833 188.308 188.026 181.074 195.169L220.438 255.027H224.124L263.486 195.169C256.254 188.021 257.942 172.061 254.558 162.483C252.624 157.007 244.554 157.129 243.52 153.312L222.475 168.94L201.043 153.312Z" fill="#F6F5DB"/>
<path d="M272.663 71.3653C271.183 67.5491 268.6 69.5222 266.585 72.0335C267.163 42.4187 251.526 27.3782 251.526 27.3782H222.158H192.791C192.791 27.3782 177.052 42.3828 177.55 71.8182C175.565 69.4146 173.089 67.6612 171.653 71.3653C168.982 78.2488 175.258 87.6839 174.057 97.2491C173.244 103.716 178.345 103.065 181.573 101.258C182.789 106.146 184.595 111.917 187.497 118.671C193.639 132.949 211.261 145.954 222.073 145.954C232.884 145.954 250.249 132.846 256.644 118.671C259.585 112.155 261.423 106.742 262.589 101.177C265.806 103.047 271.085 103.814 270.26 97.2491C269.06 87.6839 275.333 78.2488 272.663 71.3653Z" fill="#FAB76E"/>
<path d="M222.456 168.94L233.975 184.622L252.396 158.671L242.049 150.792L222.456 168.94Z" fill="#EFF0EF"/>
<path d="M222.456 168.94L210.939 184.622L192.165 159.348L202.478 150.792L222.456 168.94Z" fill="#EFF0EF"/>
<path d="M311.855 184.245C305.83 173.496 268.363 162.676 252.659 158.546C252.174 163.2 250.832 167.743 248.63 171.833C249.468 179.77 249.136 190.407 245.013 202.775C242.03 211.735 231.591 231.757 228.676 239.354C227.527 242.345 222.283 251.982 222.283 251.982C222.283 251.982 217.034 242.345 215.887 239.354C212.972 231.757 203.005 211.735 200.024 202.775C197.032 193.802 195.998 185.752 195.921 178.958C190.86 173.81 187.825 167.039 186.821 159.913C169.287 164.752 138.155 174.532 132.709 184.245C128.707 191.384 148 256 148 256H321.997C319.679 228.771 315.857 191.384 311.855 184.245Z" fill="#100F0D"/>
<path d="M222.309 252.969L273.475 184.515L261.022 178.519L267.247 162.676L250.044 157.622C250.044 157.622 249.24 174.411 241.34 200.564C235.403 220.215 222.334 251.103 222.314 251.058C222.314 251.058 209.192 220.215 203.257 200.564C195.356 174.411 194.552 157.622 194.552 157.622L177.348 162.676L183.572 178.519L171.121 184.515L222.285 252.969L222.297 252.987L222.299 252.982V252.987L222.309 252.969Z" fill="#717374"/>
<path d="M187.862 26.5075C187.862 26.5075 220.797 88.3112 272.504 24.1085C272.504 24.1085 227.186 -11.8921 187.862 26.5075Z" fill="#717374"/>
<path d="M187.1 96.4553C184.975 78.177 183.174 35.4231 210.536 23.4946L202.161 19.4452C202.161 19.4452 177.686 24.396 175.435 62.1948L182 102.097H182.058C185.096 102.097 187.452 99.4688 187.1 96.4553Z" fill="#717374"/>
<path d="M261.926 102.097H262.196L268.719 62.4504C266.47 24.6516 241.995 19.7009 241.995 19.7009L233.618 23.7503C260.957 35.6652 259.181 78.3565 257.057 96.6617C256.721 99.5676 258.999 102.097 261.926 102.097Z" fill="#717374"/>
<path d="M245.884 154.729L222.281 167.962L198.68 154.729V180.68L222.281 170.482L245.884 180.68V154.729Z" fill="#100F0D"/>
<path d="M83.9661 41.9835C83.9661 17.723 63.3886 -1.73011 38.7388 0.12194C17.9776 1.6825 1.33113 18.5976 0.0786591 39.3781C-1.01616 57.5264 9.424 73.3696 24.7584 80.2756C30.2763 82.7599 33.7552 88.3295 33.7552 94.3789V151.106C33.7552 155.6 37.4005 159.25 41.9007 159.25H42.0653C46.5655 159.25 50.2109 155.6 50.2109 151.106V94.3789C50.2109 88.2532 53.8212 82.7329 59.3931 80.1903C73.8901 73.5758 83.9661 58.9568 83.9661 41.9835Z" fill="#42607F"/>
<path d="M24.1015 46.9605H29.0676V51.835H12.6523V46.9605H17.8058V37.1263H12.6523V33.458C15.5917 33.2697 19.5138 31.6554 21.9819 30.041H24.1015V46.9605Z" fill="#ECE9BA"/>
<path d="M45.2095 46.9605H50.1759V51.835H33.7588V46.9605H38.914V37.1263H33.7588V33.458C36.6999 33.2697 40.622 31.6554 43.0901 30.041H45.2095V46.9605Z" fill="#ECE9BA"/>
<path d="M69.7022 35.454H59.3581L59.1043 38.741C59.1043 38.741 60.8137 37.3195 63.755 37.3195C68.3744 37.3195 71.3153 40.0998 71.3153 44.7187C71.3153 48.8623 67.8681 52.2166 62.3958 52.2166C56.0666 52.2166 52.7787 49.2434 52.7787 44.8129H58.3473C58.3473 46.4586 59.4859 47.8488 61.7299 47.8488C63.9461 47.8488 65.0847 46.4587 65.0847 44.6245C65.0847 42.759 63.9124 41.3644 61.7631 41.3644C59.6438 41.3644 59.0743 42.5348 58.7258 42.9474L53.7284 42.2523L54.6459 30.0728H69.7022V35.454Z" fill="#ECE9BA"/>
</svg>
