<svg width="268" height="256" viewBox="0 0 268 256" fill="none" xmlns="http://www.w3.org/2000/svg">
<path d="M225.799 77.8764C225.799 77.8764 212.692 113.827 205.835 120.612C200.757 125.632 182.565 121.711 161.613 111.892L157.005 145.422C172.022 148.663 215.785 153.231 221.828 146.999C236.284 132.102 249.033 86.336 249.033 86.336L225.799 77.8764Z" fill="#7E4F4F"/>
<path d="M227.322 74.0245C226.855 75.2072 226.096 76.7045 225.803 77.8763L248.964 86.5383C249.55 85.4786 250.086 84.3611 250.549 83.1821C254.415 73.3735 251.597 64.9936 245.185 62.4655C238.769 59.9374 231.188 64.216 227.322 74.0245Z" fill="#FAB76E"/>
<path d="M126.231 3.37545C122.907 1.92876 113.146 0.0408099 108.679 0.00464268C104.212 0.0408099 94.4507 1.92876 91.1233 3.37545C75.6582 10.0989 75.4701 23.1625 75.4701 43.5066H108.679H141.884C141.884 23.1625 141.696 10.0989 126.231 3.37545Z" fill="#100F0D"/>
<path d="M121.902 84.2779H96.1578C96.1578 84.2779 100.089 106.64 81.3618 125.132L107.789 157.064H110.267L136.698 125.132C117.97 106.64 121.902 84.2779 121.902 84.2779Z" fill="#FAB76E"/>
<path d="M121.902 84.2784H96.1578C96.1578 84.2784 98.0639 95.1756 92.8558 108.044C103.605 103.849 112.176 94.9984 121.638 86.8716C121.739 85.226 121.902 84.2784 121.902 84.2784Z" fill="#E7A24D"/>
<path d="M94.8486 97.0267C94.1578 99.5946 92.1215 98.0105 90.8231 101.692C88.5518 108.119 86.3022 120.337 81.445 125.132L107.876 165.321H110.35L136.777 125.132C131.92 120.337 133.056 109.617 130.784 103.186C129.486 99.5114 124.064 99.591 123.37 97.0267L109.243 107.522L94.8486 97.0267Z" fill="#ECE9BA"/>
<path d="M142.937 42.0098C141.946 39.4456 140.209 40.7729 138.857 42.4583C139.247 22.5736 128.745 12.4757 128.745 12.4757H109.03H89.3114C89.3114 12.4757 78.7433 22.5519 79.076 42.3137C77.7451 40.7006 76.085 39.5215 75.1194 42.0098C73.3255 46.632 77.5389 52.9649 76.7324 59.3882C76.1863 63.7283 79.6113 63.2906 81.7777 62.079C82.5987 65.363 83.8103 69.2365 85.7597 73.7683C89.8792 83.3598 101.713 92.0906 108.972 92.0906C116.227 92.0906 127.887 83.2875 132.184 73.7683C134.159 69.3957 135.392 65.7609 136.173 62.0248C138.336 63.2798 141.877 63.797 141.327 59.3882C140.517 52.9649 144.73 46.632 142.937 42.0098Z" fill="#FAB76E"/>
<path d="M109.229 107.523L116.965 118.051L129.334 100.626L122.386 95.3382L109.229 107.523Z" fill="#F6F5DB"/>
<path d="M109.229 107.523L101.492 118.051L88.8919 101.085L95.8142 95.3382L109.229 107.523Z" fill="#F6F5DB"/>
<path d="M169.252 117.798C165.205 110.583 140.05 103.317 129.508 100.543C129.182 103.671 128.282 106.72 126.802 109.465C127.367 114.792 127.142 121.935 124.372 130.239C122.372 136.254 115.363 149.701 113.402 154.801C112.632 156.808 109.113 163.278 109.113 163.278C109.113 163.278 105.59 156.808 104.816 154.801C102.86 149.701 96.1723 136.254 94.165 130.239C92.1577 124.214 91.4633 118.807 91.4127 114.25C88.0166 110.792 85.9767 106.246 85.304 101.465C73.5316 104.713 52.6306 111.277 48.9704 117.798C46.2832 122.594 43.719 147.694 42.1602 165.976H159.414C165.132 148.631 171.939 122.594 169.252 117.798Z" fill="#7E4F4F"/>
<path d="M109.131 163.94L143.483 117.979L135.121 113.954L139.302 103.317L127.75 99.9243C127.75 99.9243 127.215 111.194 121.909 128.757C117.92 141.951 109.145 162.689 109.135 162.66C109.135 162.66 100.324 141.951 96.335 128.757C91.0329 111.194 90.494 99.9243 90.494 99.9243L78.9422 103.317L83.1196 113.954L74.7613 117.979L109.117 163.94L109.124 163.951L109.131 163.94Z" fill="#100F0D"/>
<path d="M86.002 11.8932C86.002 11.8932 94.2119 29.6584 110.288 29.6584C126.603 29.6584 134.575 10.2801 134.575 10.2801C134.575 10.2801 112.404 -13.8905 86.002 11.8932Z" fill="#100F0D"/>
<path d="M85.4884 58.8525C84.0634 46.5846 82.8555 17.8786 101.225 9.86755L95.6009 7.14776C95.6009 7.14776 79.1664 10.4752 77.6583 35.8537L82.0634 62.6428H82.1069C84.1431 62.6428 85.7271 60.8779 85.4884 58.8525Z" fill="#100F0D"/>
<path d="M135.728 62.6428H135.909L140.289 36.0237C138.781 10.6415 122.347 7.31782 122.347 7.31782L116.723 10.0375C135.077 18.0413 133.884 46.7039 132.463 58.9899C132.235 60.9465 133.765 62.6428 135.728 62.6428Z" fill="#100F0D"/>
<path d="M124.958 97.9821L109.113 106.868L93.2644 97.9821V115.407L109.113 108.561L124.958 115.407V97.9821Z" fill="#B31C28"/>
<path d="M41.3825 256H177.161V172.563H41.3825V256Z" fill="#61101C"/>
<path d="M177.165 235.211L177.162 172.562H177.165V235.211Z" fill="#AB877C"/>
<path d="M177.165 235.211L41.3825 212.176V172.562H177.165L177.162 235.211" fill="#391418"/>
<path d="M202.153 195.185H16.391L0 164.591H218.548L202.153 195.185Z" fill="#61101C"/>
<path d="M141.627 157.141C143.544 153.578 149.696 150.97 157.005 150.97C164.311 150.97 170.463 153.578 172.38 157.141H141.627Z" fill="#100F0D"/>
<path d="M137.812 160.906H176.196L175.505 159.238C174.89 157.759 173.183 156.761 171.256 156.761H142.752C140.828 156.761 139.117 157.759 138.506 159.238L137.812 160.906Z" fill="#BA8632"/>
<path d="M133.569 164.591H180.438L179.292 162.139C178.63 160.728 176.959 159.795 175.1 159.795H138.907C137.045 159.795 135.378 160.728 134.719 162.139L133.569 164.591Z" fill="#100F0D"/>
<path d="M199.553 48.8593C197.734 51.9082 254.288 88.9796 257.337 90.7952C260.386 92.6144 264.332 91.6162 266.147 88.5673C267.967 85.5184 266.965 81.5761 263.916 79.7569C260.871 77.9413 201.365 45.814 199.553 48.8593Z" fill="#61101C"/>
<path d="M224.533 58.6101C225.803 58.4112 227.152 58.639 228.345 59.3515C231.065 60.9718 231.959 64.4945 230.335 67.2143C228.714 69.9377 225.192 70.8274 222.468 69.2035C221.275 68.491 220.436 67.4168 220.005 66.2016C221.535 65.7712 222.91 64.7838 223.788 63.3118C224.664 61.8398 224.877 60.1581 224.533 58.6101Z" fill="#BA8632"/>
<path d="M199.509 49.0257C199.509 49.0221 199.509 49.0185 199.509 49.0185V49.0257ZM199.516 48.9461C199.516 48.9425 199.516 48.9425 199.52 48.9389C199.52 48.9425 199.516 48.9425 199.516 48.9461Z" fill="#E4D4C3"/>
<path d="M215.155 62.2124C206.348 55.8578 199.639 50.5521 199.509 49.0729C199.509 49.0693 199.509 49.0693 199.509 49.0693C199.509 49.0621 199.509 49.0548 199.509 49.0476C199.509 49.044 199.509 49.0439 199.509 49.0439C199.509 49.0403 199.509 49.0367 199.509 49.0367V49.0331C199.509 49.0295 199.509 49.0295 199.509 49.0258V49.0186C199.509 49.015 199.509 49.015 199.509 49.0114C199.509 49.0114 199.509 49.0078 199.509 49.0042C199.509 49.0006 199.509 48.997 199.509 48.9934C199.509 48.9897 199.509 48.9861 199.509 48.9825L199.513 48.9789C199.513 48.9789 199.513 48.9752 199.513 48.9716C199.513 48.9716 199.513 48.9716 199.513 48.968C199.513 48.968 199.513 48.9644 199.513 48.9608C199.513 48.9608 199.513 48.9608 199.513 48.9571C199.516 48.9535 199.516 48.9535 199.516 48.9499V48.9463C199.516 48.9427 199.52 48.9427 199.52 48.939C199.52 48.9354 199.52 48.9318 199.52 48.9282C199.524 48.9282 199.524 48.9282 199.524 48.9282C199.524 48.9246 199.524 48.9209 199.524 48.9173C199.527 48.9137 199.527 48.9102 199.527 48.9066C199.531 48.9029 199.531 48.9029 199.531 48.8993C199.531 48.8993 199.531 48.8957 199.535 48.8957C199.535 48.8957 199.535 48.8921 199.535 48.8885C199.538 48.8885 199.538 48.8885 199.538 48.8885C199.538 48.8848 199.538 48.8812 199.542 48.8776C199.542 48.874 199.545 48.874 199.545 48.8704C199.549 48.8667 199.549 48.8631 199.553 48.8595C199.553 48.8559 199.556 48.8522 199.56 48.8486C199.647 48.7184 199.842 48.6569 200.139 48.6569C202.258 48.6569 209.47 51.7782 218.323 56.0496C218.323 56.0496 218.587 57.5939 217.437 59.5252C216.349 61.3516 215.155 62.2124 215.155 62.2124Z" fill="#54111A"/>
<path d="M193.448 56.7443C193.231 54.6574 193.375 50.943 195.903 46.6861C198.446 42.4365 201.647 40.5486 203.582 39.7457C204.515 39.3587 205.075 38.4111 204.974 37.4093C204.884 36.5557 204.855 35.4381 205.025 34.118L218.266 42.017C217.191 42.791 216.19 43.2973 215.398 43.6264C214.472 44.0134 213.9 44.9573 214.005 45.9628C214.219 48.046 214.081 51.7568 211.553 56.0173C209.007 60.2669 205.806 62.1548 203.871 62.9541C202.938 63.3411 202.377 64.2887 202.482 65.2942C202.569 66.1441 202.594 67.2653 202.428 68.5818L189.184 60.6865C190.265 59.9125 191.267 59.4062 192.052 59.077C192.985 58.69 193.553 57.7461 193.448 56.7443Z" fill="#5F101C"/>
<path d="M207.332 32.9425L207.379 32.9135C208.743 32.0383 210.49 32.0202 211.882 32.8521L216.124 35.3802C217.517 36.212 218.331 37.7564 218.211 39.373L218.208 39.4272L207.332 32.9425Z" fill="#61101C"/>
<path d="M204.005 35.1339L217.861 43.3945C218.7 43.8972 219.792 43.6187 220.295 42.7796L220.313 42.7471C220.812 41.908 220.537 40.8194 219.698 40.3167L205.842 32.056C204.996 31.5533 203.911 31.8282 203.408 32.6709L203.39 32.7035C202.887 33.5425 203.166 34.6312 204.005 35.1339Z" fill="#BA8632"/>
<path d="M189.249 63.2761L189.245 63.3267C189.122 64.947 189.936 66.4914 191.332 67.3232L195.571 69.8477C196.967 70.6795 198.71 70.6651 200.077 69.7899L200.124 69.7573L189.249 63.2761Z" fill="#61101C"/>
<path d="M189.592 59.3085L203.452 67.569C204.291 68.0681 204.565 69.1567 204.066 70.003L204.048 70.032C203.542 70.8747 202.453 71.1496 201.614 70.6468L187.759 62.3863C186.912 61.8836 186.637 60.7949 187.144 59.9522L187.162 59.9233C187.661 59.0806 188.75 58.8057 189.592 59.3085Z" fill="#BA8632"/>
</svg>
